# xmcd
#
# Track frame offsets:
#	150
#	10150
#	21713
#	33116
#	48204
#	68000
#	82987
#	96281
#	117389
#	134861
#	148345
#	162592
#	173782
#	187943
#	207286
#	224591
#	240646
#
# Disc length: 3396 seconds
#
# Revision: 0
# Processed by: cddbd v1.5.2PL0 Copyright (c) Steve Scherf et al.
# Submitted via: dBpowerAMP V4.0
#
DISCID=fa0d4211
DTITLE=Commander Cody And His Lost Planet Airmen-75 - 1975-07-26 [CD1]
DYEAR=1900
DGENRE=Country Rock
TTITLE0=Armadillo Stomp
TTITLE1=One Of These Nights
TTITLE2=Everybody's Doing It
TTITLE3=The Shadow Knows
TTITLE4=Seeds And Stems (Again)
TTITLE5=Connie
TTITLE6=Cajun Baby
TTITLE7=Honky Tonk Music
TTITLE8=Minnie The Moocher
TTITLE9=Semi-Truck
TTITLE10=Paid In Advance
TTITLE11=Lookin' At The World Through A Windshield
TTITLE12=High On A Hilltop
TTITLE13=Oh Mama Mama
TTITLE14=Hot Rod Lincoln
TTITLE15=Roll Your Own
TTITLE16=Don't Let Go
EXTD=
EXTT0=
EXTT1=
EXTT2=
EXTT3=
EXTT4=
EXTT5=
EXTT6=
EXTT7=
EXTT8=
EXTT9=
EXTT10=
EXTT11=
EXTT12=
EXTT13=
EXTT14=
EXTT15=
EXTT16=
PLAYORDER=
